<svg xmlns="http://www.w3.org/2000/svg" width="1328" height="720" viewBox="0 0 1328 720">
<g>
<path d="M 435.44 618.58 C433.06,616.84 433.91,613.13 439.04,602.77 C441.29,598.22 444.47,591.12 446.11,587.00 C447.74,582.88 451.29,574.78 453.99,569.00 C456.69,563.22 461.00,553.55 463.58,547.50 C466.15,541.45 469.50,533.80 471.03,530.50 C472.56,527.20 475.26,521.12 477.03,517.00 C480.51,508.88 487.50,493.24 492.11,483.25 C493.70,479.81 495.00,476.77 495.00,476.50 C495.00,476.02 507.92,446.82 516.01,429.00 C530.89,396.21 531.57,394.48 529.50,394.52 C499.51,395.06 435.94,401.94 391.00,409.50 C386.33,410.28 376.65,411.88 369.50,413.04 C325.28,420.24 249.49,437.11 206.50,449.33 C201.55,450.73 192.55,453.22 186.50,454.86 C172.19,458.72 148.73,465.51 127.72,471.86 C107.88,477.86 101.98,478.89 100.14,476.67 C97.97,474.06 100.27,471.72 110.62,465.99 C144.73,447.09 214.95,418.30 276.00,398.19 C360.23,370.44 461.06,348.95 544.00,341.08 C605.57,335.24 610.30,335.05 610.78,338.50 C610.93,339.60 608.29,346.58 604.92,354.00 C601.54,361.42 593.93,378.30 588.00,391.50 C582.08,404.70 573.31,424.05 568.52,434.50 C563.73,444.95 557.55,458.67 554.80,465.00 C549.40,477.38 549.64,476.83 534.88,509.32 C529.43,521.32 525.21,531.53 525.50,532.00 C525.80,532.48 528.17,532.02 530.77,530.97 C537.57,528.24 603.00,502.45 612.50,498.76 C616.90,497.04 629.72,491.98 641.00,487.50 C671.62,475.33 668.42,475.92 680.39,480.20 C694.81,485.36 712.36,491.87 740.50,502.49 C748.75,505.61 756.62,508.53 758.00,509.00 C759.38,509.46 773.49,514.83 789.37,520.92 C817.42,531.69 821.00,532.85 821.00,531.22 C821.00,530.79 818.49,524.61 815.41,517.47 C805.04,493.39 803.82,490.52 799.53,480.00 C797.17,474.23 793.13,464.77 790.55,459.00 C787.97,453.23 784.27,444.45 782.33,439.51 C780.39,434.56 777.99,428.94 777.00,427.01 C776.02,425.08 772.66,417.20 769.53,409.50 C766.41,401.80 762.36,392.12 760.53,388.00 C758.70,383.88 754.86,374.88 751.99,368.00 C749.12,361.12 745.42,352.58 743.76,349.00 C742.11,345.42 740.69,340.92 740.63,339.00 L 740.50 335.50 L 753.50 335.73 C765.85,335.94 792.29,337.86 813.00,340.04 C832.88,342.14 858.77,345.07 865.50,345.98 C928.83,354.59 964.37,361.36 1026.00,376.57 C1087.63,391.77 1165.26,418.16 1218.50,442.01 C1220.70,443.00 1227.22,445.92 1233.00,448.51 C1250.46,456.33 1277.35,469.98 1279.75,472.23 C1284.46,476.66 1281.44,478.44 1271.85,476.90 C1268.56,476.37 1258.59,473.70 1249.69,470.96 C1240.78,468.22 1227.65,464.37 1220.50,462.40 C1213.35,460.43 1200.65,456.85 1192.28,454.45 C1183.90,452.05 1162.75,446.49 1145.28,442.09 C1078.81,425.38 1020.82,414.40 944.00,403.97 C914.40,399.96 868.14,395.99 833.12,394.47 L 818.74 393.85 L 819.41 396.50 C819.78,397.96 823.71,407.78 828.14,418.33 C832.58,428.87 838.35,442.67 840.96,449.00 C845.41,459.76 852.64,476.96 859.04,492.00 C860.56,495.58 864.82,505.70 868.50,514.50 C872.19,523.30 877.00,534.78 879.20,540.00 C881.40,545.22 885.34,554.67 887.96,561.00 C890.58,567.33 896.38,581.11 900.86,591.64 C909.15,611.12 910.07,614.37 907.61,615.32 C906.10,615.90 891.25,610.87 864.00,600.54 C854.38,596.89 838.85,591.06 829.50,587.57 C783.84,570.55 771.10,565.75 766.52,563.83 C763.78,562.68 759.28,560.97 756.52,560.02 C753.76,559.07 744.08,555.47 735.00,552.01 C725.92,548.55 714.45,544.25 709.50,542.46 C704.55,540.67 695.33,537.20 689.00,534.75 C682.67,532.30 675.85,529.76 673.83,529.10 C670.27,527.94 668.76,528.44 627.83,544.51 C604.55,553.65 581.32,562.90 576.22,565.06 C571.11,567.23 566.71,569.00 566.42,569.00 C566.14,569.00 552.77,574.23 536.70,580.61 C490.92,598.82 440.66,618.69 438.85,619.30 C437.94,619.61 436.41,619.29 435.44,618.58 ZM 565.75 324.43 C564.26,322.91 565.06,318.83 567.97,313.06 C569.60,309.83 573.84,300.50 577.38,292.34 C580.93,284.18 587.97,268.27 593.03,257.00 C598.09,245.73 604.40,231.55 607.05,225.50 C609.70,219.45 613.29,211.60 615.02,208.06 C616.75,204.52 620.66,195.75 623.71,188.56 C626.76,181.38 630.73,172.56 632.53,168.97 C634.33,165.37 637.83,157.69 640.31,151.90 C642.78,146.10 646.65,137.52 648.90,132.82 C651.16,128.12 653.00,124.02 653.00,123.71 C653.00,123.11 666.06,94.11 673.24,78.75 C676.01,72.83 677.88,70.00 679.02,70.00 C680.83,70.00 682.67,73.69 692.46,97.00 C695.58,104.43 699.23,112.87 700.57,115.78 C701.91,118.68 703.00,121.27 703.00,121.53 C703.00,121.79 704.74,125.94 706.87,130.75 C709.00,135.56 713.21,145.35 716.24,152.50 C719.26,159.65 724.35,171.57 727.53,179.00 C736.29,199.39 742.01,212.95 744.20,218.50 C745.29,221.25 750.82,234.30 756.49,247.50 C762.16,260.70 769.16,277.12 772.04,284.00 C774.92,290.88 779.47,301.64 782.14,307.91 C787.28,319.99 787.84,322.46 785.62,323.31 C784.87,323.60 779.80,323.43 774.37,322.93 C768.94,322.43 757.39,321.37 748.69,320.59 C740.00,319.80 732.30,318.66 731.57,318.06 C730.85,317.46 728.78,313.49 726.98,309.23 C725.18,304.98 721.77,297.00 719.41,291.50 C699.68,245.58 689.47,221.59 687.48,216.50 C682.96,204.90 678.22,194.90 677.37,195.20 C676.90,195.37 673.43,202.48 669.65,211.00 C665.88,219.52 658.73,235.50 653.76,246.50 C648.80,257.50 641.40,273.92 637.30,283.00 C622.34,316.19 620.93,318.86 618.10,319.45 C616.67,319.75 606.72,320.90 596.00,321.99 C585.28,323.09 574.25,324.27 571.50,324.60 C568.75,324.93 566.16,324.86 565.75,324.43 Z" fill="#33FF00"/>
</g>
</svg>